<?xml version="1.0" encoding="UTF-8"?>
<svg width="280px" height="37px" viewBox="0 0 280 37" version="1.1" xmlns="http://www.w3.org/2000/svg" xmlns:xlink="http://www.w3.org/1999/xlink">
    <!-- Generator: Sketch 52.5 (67469) - http://www.bohemiancoding.com/sketch -->
    <title>Logo</title>
    <desc>Created with Sketch.</desc>
    <g id="Page-1" stroke="none" stroke-width="1" fill="none" fill-rule="evenodd">
        <g id="Logo" fill="#FFFFFF" fill-rule="nonzero">
            <path d="M126.389132,30.1907748 C127.601764,30.2207167 128.774349,29.7593514 129.636469,28.9130782 L133.713735,31.2339878 C132.049052,33.5261851 129.530315,34.7081741 126.307104,34.7081741 C120.516904,34.7081741 116.893204,30.8320158 116.893204,25.8121516 C116.893204,20.7922873 120.560331,16.916129 125.930741,16.916129 C130.891012,16.916129 134.562964,20.7444335 134.562964,25.8121516 C134.566695,26.4907109 134.497138,27.167715 134.355482,27.8315822 L122.292565,27.8315822 C122.934313,29.5830315 124.497667,30.1907748 126.369831,30.1907748 L126.389132,30.1907748 Z M129.491714,24.0607023 C129.103283,22.4234774 127.585305,21.2994263 125.89214,21.3952453 C123.962073,21.3952453 122.664103,22.3523214 122.186412,24.0607023 L129.491714,24.0607023 Z" id="Shape"></path>
            <path d="M163.087254,23.5901101 L163.087254,34.2154713 L157.923182,34.2154713 L157.923182,24.0422531 C157.923182,22.3123145 157.097517,21.2016153 155.446187,21.2016153 C153.794857,21.2016153 152.763996,22.4155211 152.763996,24.4550793 L152.763996,34.2154713 L147.604811,34.2154713 L147.604811,24.0422531 C147.604811,22.3123145 146.779145,21.2016153 145.127815,21.2016153 C143.476485,21.2016153 142.460282,22.4155211 142.460282,24.4452501 L142.460282,34.2154713 L137.281553,34.2154713 L137.281553,16.9111711 L142.460282,16.9111711 L142.460282,18.5035009 C143.251748,17.328912 144.766281,16.4295405 147.072281,16.4295405 C148.867606,16.3416032 150.577291,17.2071166 151.576797,18.7099141 C152.553916,17.328912 154.127077,16.4295405 156.569873,16.4295405 C160.522318,16.4295405 163.106796,19.2652636 163.106796,23.5901101" id="Shape"></path>
            <polygon id="Rectangle-path" points="165.825243 12.3175697 171.262136 12.3175697 171.262136 34.2154713 165.825243 34.2154713"></polygon>
            <path d="M191.650485,17.3850963 L191.650485,34.2344215 L186.347039,34.2344215 L186.347039,32.6504605 C185.176866,33.9329425 183.444206,34.7081741 181.073726,34.7081741 C176.443256,34.7081741 172.621359,30.8320158 172.621359,25.8121516 C172.621359,20.7922873 176.443256,16.916129 181.073726,16.916129 C183.444206,16.916129 185.176866,17.6913607 186.347039,18.9690573 L186.347039,17.3850963 L191.650485,17.3850963 Z M186.347039,25.8121516 C186.347039,23.2854706 184.574202,21.7015096 182.138433,21.7015096 C179.702665,21.7015096 177.929828,23.2854706 177.929828,25.8121516 C177.929828,28.3388325 179.697643,29.9227935 182.138433,29.9227935 C184.579224,29.9227935 186.347039,28.3388325 186.347039,25.8121516 Z" id="Shape"></path>
            <polygon id="Shape" points="204.903315 34.2154713 199.464813 26.5860188 199.464813 34.2154713 194.368932 34.2154713 194.368932 12.3175697 199.464813 12.3175697 199.464813 24.5119453 204.560694 16.9511382 210.510714 16.9511382 204.324237 25.5857564 210.679612 34.2154713"></polygon>
            <path d="M210.07409,22.1521139 C211.346811,21.6285899 212.807427,21.928863 213.774474,22.9128381 C214.741521,23.8968132 215.024424,25.3705793 214.491192,26.6465384 C213.957961,27.9224975 212.713679,28.7491975 211.338876,28.7409346 C209.468841,28.7185521 207.963812,27.1871774 207.961165,25.3040966 C207.967355,23.9197884 208.801368,22.6756378 210.07409,22.1521139 Z" id="Shape"></path>
            <path d="M217.476932,25.8217478 C217.486802,21.8176143 220.119653,18.3099841 223.917739,17.2409468 C227.715825,16.1719094 231.749905,17.8030157 233.786408,21.2311619 L229.433127,23.7947981 C228.815886,22.5788748 227.556819,21.8409501 226.211793,21.9068118 C225.187157,21.8731148 224.195581,22.2775707 223.478336,23.021767 C222.76109,23.7659633 222.383933,24.7816712 222.438635,25.8217478 C222.383933,26.8618244 222.76109,27.8775323 223.478336,28.6217286 C224.195581,29.3659249 225.187157,29.7703808 226.211793,29.7366838 C227.565621,29.8072283 228.831369,29.0540909 229.433127,27.8199465 L233.786408,30.3500398 C232.253268,33.0851172 229.375453,34.7545591 226.277823,34.7058253 C223.937338,34.7609266 221.675835,33.8445401 220.015086,32.1680942 C218.354338,30.4916483 217.437798,28.1999531 217.476932,25.8217478" id="Shape"></path>
            <path d="M235.145852,25.8501105 C235.130526,22.2487442 237.273299,18.9934024 240.573376,17.6045132 C243.873453,16.2156239 247.679629,16.967257 250.214206,19.5083573 C252.748782,22.0494577 253.51161,25.8785896 252.146407,29.2073327 C250.781203,32.5360758 247.557363,34.7075686 243.980602,34.7076017 C241.635963,34.7345193 239.379015,33.8112066 237.71744,32.1453553 C236.055866,30.479504 235.129187,28.2109949 235.145852,25.8501105 M247.808836,25.8501105 C247.858073,24.439811 247.138925,23.1148964 245.933467,22.3950456 C244.728009,21.6751948 243.228464,21.6751948 242.023006,22.3950456 C240.817548,23.1148964 240.0984,24.439811 240.147636,25.8501105 C240.0984,27.26041 240.817548,28.5853245 242.023006,29.3051753 C243.228464,30.0250261 244.728009,30.0250261 245.933467,29.3051753 C247.138925,28.5853245 247.858073,27.26041 247.808836,25.8501105" id="Shape"></path>
            <path d="M279.990221,23.5900939 L279.990221,34.2154713 L274.832018,34.2154713 L274.832018,24.0422376 C274.832018,22.3122964 274.010617,21.2015956 272.353147,21.2015956 C270.695676,21.2015956 269.668925,22.4155032 269.668925,24.4550645 L269.668925,34.2154713 L264.505832,34.2154713 L264.505832,24.0422376 C264.505832,22.3122964 263.679542,21.2015956 262.026961,21.2015956 C260.37438,21.2015956 259.342739,22.4155032 259.342739,24.4550645 L259.342739,34.2154713 L254.174757,34.2154713 L254.174757,16.9111448 L259.342739,16.9111448 L259.342739,18.503477 C260.134805,17.3288863 261.645596,16.4295135 263.953342,16.4295135 C265.751317,16.3417913 267.463653,17.2070542 268.466159,18.7098905 C269.444018,17.3288863 271.01348,16.4295135 273.458127,16.4295135 C277.418454,16.4295135 280,19.2652409 280,23.5900939" id="Shape"></path>
            <path d="M16.3106796,23.6195543 L16.3106796,34.2154713 L11.2147986,34.2154713 L11.2147986,24.3795576 C11.2147986,22.2368386 9.88774631,21.2365762 8.25667835,21.2365762 C6.38915379,21.2365762 5.09588097,22.3398068 5.09588097,24.7914304 L5.09588097,34.2154713 L0,34.2154713 L0,12.3175697 L5.09588097,12.3175697 L5.09588097,18.574113 C6.01275349,17.2992688 7.71620612,16.47062 9.95530534,16.47062 C13.3911645,16.47062 16.3106796,18.9565663 16.3106796,23.6195543" id="Shape"></path>
            <path d="M35.3398058,16.916129 L35.3398058,34.2215961 L30.2505648,34.2215961 L30.2505648,32.5947544 C29.3331494,33.877551 27.6335167,34.7081741 25.3882633,34.7081741 C21.9551984,34.7081741 19.0291262,32.2163048 19.0291262,27.5422068 L19.0291262,16.916129 L24.1280243,16.916129 L24.1280243,26.7803927 C24.1280243,28.9282169 25.4558623,29.9308626 27.087896,29.9308626 C28.9565262,29.9308626 30.2505648,28.8250034 30.2505648,26.3675386 L30.2505648,16.916129 L35.3398058,16.916129 Z" id="Shape"></path>
            <path d="M48.9320388,16.4382777 L48.9320388,22.3788604 C46.6831772,22.0323264 43.4977187,22.9036118 43.4977187,26.3392488 L43.4977187,34.2154713 L38.0582524,34.2154713 L38.0582524,16.7897622 L43.4977187,16.7897622 L43.4977187,19.8887661 C44.2181778,17.552137 46.6471542,16.4234262 48.9320388,16.4234262" id="Shape"></path>
            <path d="M61.1650485,16.4382777 L61.1650485,22.3788604 C58.921333,22.0323264 55.7307284,22.9036118 55.7307284,26.3392488 L55.7307284,34.2154713 L50.2912621,34.2154713 L50.2912621,16.7897622 L55.7255823,16.7897622 L55.7255823,19.8887661 C56.4511875,17.552137 58.8801639,16.4234262 61.1599024,16.4234262" id="Shape"></path>
            <path d="M62.5242718,12.5154161 C62.5242718,10.8944139 63.7413618,9.58033198 65.2427184,9.58033198 C66.744075,9.58033198 67.961165,10.8944139 67.961165,12.5154161 C67.961165,14.1364183 66.744075,15.4505002 65.2427184,15.4505002 C63.7495226,15.4294231 62.5437932,14.1276072 62.5242718,12.5154161 Z" id="Path"></path>
            <polygon id="Path" points="62.8459547 16.9963112 67.6304207 16.9963112 67.6304207 34.2154713 62.8459547 34.2154713"></polygon>
            <path d="M96.4717733,30.1907748 C97.6898872,30.2274916 98.8695483,29.7654036 99.7335962,28.9130782 L103.810875,31.2387732 C102.146187,33.5309705 99.6322674,34.7081741 96.4042208,34.7081741 C90.6140027,34.7081741 86.9902913,30.8320158 86.9902913,25.8121516 C86.9902913,20.7922873 90.6622545,16.916129 96.0278566,16.916129 C100.988143,16.916129 104.660107,20.7444335 104.660107,25.8121516 C104.66298,26.4920092 104.595067,27.1703444 104.457449,27.8363676 L92.3944948,27.8363676 C93.0410691,29.5878169 94.604428,30.1907748 96.4717733,30.1907748 Z M99.5984911,24.0607023 C99.2003455,22.4296176 97.6834864,21.3139439 95.9940803,21.4096014 C94.0640077,21.4096014 92.7660338,22.3666775 92.293166,24.0750584 L99.5984911,24.0607023 Z" id="Shape"></path>
            <polygon id="Shape" points="106.990291 34.2154713 112.058013 34.2154713 112.058013 21.9208805 115.533981 21.9208805 115.533981 16.9501009 112.058013 16.9501009 112.058013 12.3175697 106.990291 12.3371783 106.990291 16.9501009 104.660194 16.9501009 104.660194 21.9208805 106.990291 21.9208805"></polygon>
            <polygon id="Shape" points="73.9035205 36.9527091 79.4570852 36.9527091 88.3495146 16.4234262 82.8103622 16.4234262 79.1063843 25.4490673 75.2582828 16.4234262 69.3203883 16.4234262 76.4064679 31.5725883"></polygon>
            <polygon id="Shape" points="27.1795194 0 14.9514563 12.467492 18.8444521 16.4234262 27.184466 7.92194724 35.5294265 16.4183868 39.4174757 12.4574132"></polygon>
        </g>
    </g>
</svg>